<svg height="480pt" viewBox="0 0 480 480" width="480pt" xmlns="http://www.w3.org/2000/svg"><g fill="#bc8f6f"><path d="m224 384-96 96h48l48-48"/><path d="m256 384 96 96h-48l-48-48"/><path d="m224 336v144h32v-144"/></g><path d="m224 336v144h16v-144" fill="#cb9e78"/><path d="m216 48v-24c0-13.257812 10.742188-24 24-24s24 10.742188 24 24v24" fill="#d9d7d8"/><path d="m0 48h480v288h-480zm0 0" fill="#94cce7"/><path d="m144 304c-8.839844 0-16-7.160156-16-16v-16c0-8.839844 7.160156-16 16-16s16 7.160156 16 16v16c0 8.839844-7.160156 16-16 16zm0 0" fill="#e2cb6b"/><path d="m352 48v80c0 8.839844-7.160156 16-16 16s-16-7.160156-16-16v-16c0-8.839844-7.160156-16-16-16s-16 7.160156-16 16v16c0 8.839844-7.160156 16-16 16s-16-7.160156-16-16v-16c0-8.839844-7.160156-16-16-16s-16 7.160156-16 16v64c0 8.839844-7.160156 16-16 16s-16-7.160156-16-16v-16c0-8.839844-7.160156-16-16-16s-16 7.160156-16 16v48c0 8.839844-7.160156 16-16 16s-16-7.160156-16-16v-48c0-8.839844-7.160156-16-16-16s-16 7.160156-16 16v16c0 8.839844-7.160156 16-16 16s-16-7.160156-16-16v-128" fill="#e2cb6b"/><path d="m72 189.785156c4.761719-2.769531 8-7.875 8-13.785156v-16c0-8.839844 7.160156-16 16-16 2.929688 0 5.640625.847656 8 2.214844 2.359375-1.367188 5.070312-2.214844 8-2.214844 8.839844 0 16 7.160156 16 16v48c0 5.902344 3.238281 11.007812 8 13.785156 4.761719-2.769531 8-7.875 8-13.785156v-48c0-8.839844 7.160156-16 16-16 2.929688 0 5.640625.847656 8 2.214844 2.359375-1.367188 5.070312-2.214844 8-2.214844 8.839844 0 16 7.160156 16 16v16c0 5.902344 3.238281 11.007812 8 13.785156 4.761719-2.769531 8-7.875 8-13.785156v-64c0-8.839844 7.160156-16 16-16 2.929688 0 5.640625.847656 8 2.214844 2.359375-1.367188 5.070312-2.214844 8-2.214844 8.839844 0 16 7.160156 16 16v16c0 5.902344 3.238281 11.007812 8 13.785156 4.761719-2.769531 8-7.875 8-13.785156v-16c0-8.839844 7.160156-16 16-16 2.929688 0 5.640625.847656 8 2.214844 2.359375-1.367188 5.070312-2.214844 8-2.214844 8.839844 0 16 7.160156 16 16v16c0 5.902344 3.238281 11.007812 8 13.785156 4.761719-2.769531 8-7.875 8-13.785156v-80h-272v128c0 5.902344 3.238281 11.007812 8 13.785156zm0 0" fill="#f6dc74"/><path d="m344 352v-88h-24c-8.839844 0-16-7.160156-16-16v-64h112v64c0 8.839844-7.160156 16-16 16h-24v88c0 8.839844-7.160156 16-16 16s-16-7.160156-16-16zm0 0" fill="#bc8f6f"/><path d="m304 184h112v32h-112zm0 0" fill="#eebc5a"/><path d="m24 48h16v288h-16zm0 0" fill="#85b6cf"/><path d="m440 48h16v288h-16zm0 0" fill="#85b6cf"/></svg>