<svg height="480pt" viewBox="0 0 480 480" width="480pt" xmlns="http://www.w3.org/2000/svg"><path d="m480 160h-16v-120h-24v-16h32c4.425781 0 8 3.574219 8 8zm0 0" fill="#bab8b9"/><path d="m440 56h32v16h-32zm0 0" fill="#bab8b9"/><path d="m432 0h-32c-8.839844 0-16 7.160156-16 16v88h64v-88c0-8.839844-7.160156-16-16-16zm0 0" fill="#85b6cf"/><path d="m384 48h64v56h-64zm0 0" fill="#94cce7"/><path d="m400 344v32l32 32v-64" fill="#bc8f6f"/><path d="m400 104h32v32h-32zm0 0" fill="#5b6673"/><path d="m384 136h64v208h-64zm0 0" fill="#85b6cf"/><path d="m384 168h64v144h-64zm0 0" fill="#94cce7"/><path d="m320 480h-224c-17.671875 0-32-14.328125-32-32v-416c0-17.671875 14.328125-32 32-32h224c17.671875 0 32 14.328125 32 32v416c0 17.671875-14.328125 32-32 32zm0 0" fill="#bab8b9"/><path d="m320 0c-17.671875 0-32 14.328125-32 32v16h-288v-16c0-17.671875 14.328125-32 32-32zm0 0" fill="#5b6673"/><path d="m96 480c17.671875 0 32-14.328125 32-32v-16h288v16c0 17.671875-14.328125 32-32 32zm0 0" fill="#5b6673"/><path d="m96 336h224v64h-224zm0 0" fill="#efedee"/><path d="m128 272h32v32h-32zm0 0" fill="#bc8f6f"/><path d="m128 208h32v32h-32zm0 0" fill="#bc8f6f"/><path d="m256 144h32v32h-32zm0 0" fill="#eebc5a"/><path d="m256 80h32v32h-32zm0 0" fill="#eebc5a"/><path d="m384 304h64v16h-64zm0 0" fill="#bab8b9"/><path d="m384 160h64v16h-64zm0 0" fill="#bab8b9"/><g fill="#efedee"><path d="m88 72h128v16h-128zm0 0"/><path d="m88 104h128v16h-128zm0 0"/><path d="m88 136h128v16h-128zm0 0"/><path d="m88 168h128v16h-128zm0 0"/><path d="m200 200h128v16h-128zm0 0"/><path d="m200 232h128v16h-128zm0 0"/><path d="m200 264h128v16h-128zm0 0"/><path d="m200 296h128v16h-128zm0 0"/></g></svg>