<svg height="480pt" viewBox="0 0 480 480" width="480pt" xmlns="http://www.w3.org/2000/svg"><path d="m400 320h-304c-8.839844 0-16-7.160156-16-16v-48c0-8.839844 7.160156-16 16-16h304zm0 0" fill="#ed7775"/><path d="m352 400h-304c-8.839844 0-16-7.160156-16-16v-48c0-8.839844 7.160156-16 16-16h304zm0 0" fill="#f6dc74"/><path d="m400 480h-304c-8.839844 0-16-7.160156-16-16v-48c0-8.839844 7.160156-16 16-16h304zm0 0" fill="#599072"/><path d="m480 32c0 17.671875-14.328125 32-32 32s-32-14.328125-32-32 14.328125-32 32-32 32 14.328125 32 32zm0 0" fill="#699ce6"/><path d="m64 32c0 17.671875-14.328125 32-32 32s-32-14.328125-32-32 14.328125-32 32-32 32 14.328125 32 32zm0 0" fill="#699ce6"/><path d="m408 96c0 8.835938-7.164062 16-16 16s-16-7.164062-16-16 7.164062-16 16-16 16 7.164062 16 16zm0 0" fill="#f8cf6a"/><path d="m104 96c0 8.835938-7.164062 16-16 16s-16-7.164062-16-16 7.164062-16 16-16 16 7.164062 16 16zm0 0" fill="#f8cf6a"/><path d="m320 80 32-80-88 24h-48l-88-24 32 80" fill="#bc8f6f"/><path d="m264 24h-72l-61.0625-16.65625 29.0625 72.65625h136l29.0625-72.65625zm0 0" fill="#cb9e78"/><path d="m328 152c0 48.601562-39.398438 88-88 88s-88-39.398438-88-88 39.398438-88 88-88 88 39.398438 88 88zm0 0" fill="#bc8f6f"/><path d="m304 152c0-48.097656-34.027344-87.089844-76-87.089844s-76 38.992188-76 87.089844 34.027344 87.089844 76 87.089844 76-38.992188 76-87.089844zm0 0" fill="#cb9e78"/><path d="m224 80c0 17.671875-14.328125 32-32 32s-32-14.328125-32-32 14.328125-32 32-32 32 14.328125 32 32zm0 0" fill="#d9d7d8"/><path d="m320 80c0 17.671875-14.328125 32-32 32s-32-14.328125-32-32 14.328125-32 32-32 32 14.328125 32 32zm0 0" fill="#d9d7d8"/><path d="m288 192c0 26.507812-21.492188 48-48 48s-48-21.492188-48-48 21.492188-48 48-48 48 21.492188 48 48zm0 0" fill="#f3c6b0"/><path d="m264 144c0-13.257812-10.742188-24-24-24s-24 10.742188-24 24l24 40zm0 0" fill="#dc6068"/><g fill="#70b48f"><path d="m120 400h16v80h-16zm0 0"/><path d="m128 424h200v16h-200zm0 0"/><path d="m344 440h56v16h-56zm0 0"/></g><path d="m120 240h16v80h-16zm0 0" fill="#d46b69"/><path d="m128 264h200v16h-200zm0 0" fill="#d46b69"/><path d="m344 280h56v16h-56zm0 0" fill="#d46b69"/><path d="m72 320h16v80h-16zm0 0" fill="#e2cb6b"/><path d="m80 344h200v16h-200zm0 0" fill="#e2cb6b"/><path d="m296 360h56v16h-56zm0 0" fill="#e2cb6b"/><path d="m188 88c-6.617188 0-12-5.382812-12-12s5.382812-12 12-12 12 5.382812 12 12-5.382812 12-12 12zm0-16c-2.199219 0-4 1.792969-4 4s1.800781 4 4 4 4-1.792969 4-4-1.800781-4-4-4zm0 0" fill="#bc8f6f"/><path d="m284 88c-6.617188 0-12-5.382812-12-12s5.382812-12 12-12 12 5.382812 12 12-5.382812 12-12 12zm0-16c-2.199219 0-4 1.792969-4 4s1.800781 4 4 4 4-1.792969 4-4-1.800781-4-4-4zm0 0" fill="#bc8f6f"/></svg>