<svg height="480pt" viewBox="0 0 480 480" width="480pt" xmlns="http://www.w3.org/2000/svg"><path d="m346.34375 50.34375 32-32 11.3125 11.3125-32 32zm0 0" fill="#bc8f6f"/><path d="m90.34375 306.339844 32-32 11.3125 11.3125-32 32zm0 0" fill="#bc8f6f"/><path d="m0 448h480v32h-480zm0 0" fill="#599072"/><path d="m0 448h440v32h-440zm0 0" fill="#70b48f"/><path d="m120 400h240v48h-240zm0 0" fill="#d46b69"/><path d="m120 400h208v48h-208zm0 0" fill="#ed7775"/><path d="m216 368h48v32h-48zm0 0" fill="#bc8f6f"/><path d="m216 368h32v32h-32zm0 0" fill="#cb9e78"/><path d="m408 168c0 92.785156-75.214844 168-168 168s-168-75.214844-168-168 75.214844-168 168-168 168 75.214844 168 168zm0 0" fill="#5789d6"/><path d="m384 168c0-92.449219-69.84375-167.390625-156-167.390625s-156 74.941406-156 167.390625 69.84375 167.390625 156 167.390625 156-74.941406 156-167.390625zm0 0" fill="#699ce6"/><g fill="#70b48f"><path d="m256 272h-40l-16-16v-16l-16-16h-48l-16-16h-43.007812c17.96875 73.433594 84.03125 128 163.007812 128 19.183594 0 37.535156-3.367188 54.710938-9.289062l-22.710938-22.710938v-16zm0 0"/><path d="m81.769531 112c-5.363281 15.128906-8.570312 31.230469-9.363281 48h15.59375l8 16h24l24-24v-24l-16-16zm0 0"/><path d="m113.585938 57.585938 22.414062 22.414062h24l16-16v-16l16-16v-24.953125c-30.792969 9.175781-57.800781 26.960937-78.414062 50.539063zm0 0"/></g><path d="m290.054688 7.59375-2.054688.40625-24 24v16l-16 16v16l16 16h24l16 16v24l16 16h24l16 16h24l22.34375 22.34375c.976562-7.328125 1.65625-14.75 1.65625-22.34375 0-75.351562-49.609375-139.113281-117.945312-160.40625zm0 0" fill="#599072"/><path d="m282.289062 13.710938-18.289062 18.289062v16l-16 16v16l16 16h24l16 16v24l16 16h24l16 16h24c0-69.222656-41.921875-128.558594-101.710938-154.289062zm0 0" fill="#70b48f"/><path d="m200 104-16 16v16l16 16v16l16 16h24v-24l16-16v-16l-16-16h-24zm0 0" fill="#70b48f"/><path d="m240 376c-66.039062 0-126.6875-30.320312-166.398438-83.175781l12.796876-9.609375c36.65625 48.792968 92.640624 76.785156 153.601562 76.785156 105.863281 0 192-86.128906 192-192 0-60.960938-27.992188-116.953125-76.808594-153.617188l9.609375-12.796874c52.878907 39.71875 83.199219 100.375 83.199219 166.414062 0 114.6875-93.304688 208-208 208zm0 0" fill="#cb9e78"/><path d="m232 296h16v16h-16zm0 0" fill="#599072"/><path d="m152 248h16v16h-16zm0 0" fill="#599072"/></svg>