<svg height="480pt" viewBox="-63 0 479 480" width="480pt" xmlns="http://www.w3.org/2000/svg"><path d="m32.5 0h320v448h-320zm0 0" fill="#5b6673"/><path d="m.5 480v-448h256v64h64v384zm0 0" fill="#d9d7d8"/><path d="m144.5 232h32v48h-32zm0 0" fill="#bc8f6f"/><path d="m144.5 232h16v48h-16zm0 0" fill="#cb9e78"/><path d="m128.5 368 32 80 32-80" fill="#5789d6"/><path d="m168.5 368h-40l20 50zm0 0" fill="#699ce6"/><path d="m32.5 64h192v48h-192zm0 0" fill="#fff"/><path d="m320.5 96-64-64v64zm0 0" fill="#bab8b9"/><g fill="#fff"><path d="m32.5 168h88v16h-88zm0 0"/><path d="m32.5 200h88v16h-88zm0 0"/><path d="m224.5 312h64v16h-64zm0 0"/><path d="m184.5 280h104v16h-104zm0 0"/><path d="m232.5 344h56v16h-56zm0 0"/></g><path d="m240.5 368h-160v-16c0-44.183594 35.816406-80 80-80s80 35.816406 80 80zm0 0" fill="#d46b69"/><path d="m144.5 273.609375c-36.511719 7.414063-64 39.6875-64 78.390625v16h128v-16c0-38.703125-27.488281-70.976562-64-78.390625zm0 0" fill="#ed7775"/><path d="m160.5 240c-26.511719 0-48-21.488281-48-48v-32h96v32c0 26.511719-21.488281 48-48 48zm0 0" fill="#d46b69"/><path d="m148.5 238.425781c20.6875-5.335937 36-24.066406 36-46.425781v-32h-72v32c0 22.359375 15.3125 41.089844 36 46.425781zm0 0" fill="#ed7775"/></svg>