<svg height="480pt" viewBox="-31 0 479 480" width="480pt" xmlns="http://www.w3.org/2000/svg"><path d="m416.5 480h-416v-72c0-48.601562 39.398438-88 88-88h64l56 48 56-48h64c48.601562 0 88 39.398438 88 88zm0 0" fill="#bab8b9"/><path d="m296.5 320h-32l-48 48-16-13.710938-16 13.710938-56-48h-40c-48.601562 0-88 39.398438-88 88v72h384v-72c0-48.601562-39.398438-88-88-88zm0 0" fill="#d9d7d8"/><path d="m240.5 480-16-72h-32l-16 72zm0 0" fill="#70b48f"/><path d="m240.5 368v24l-32 32-32-32v-24" fill="#599072"/><path d="m208.5 368 64 48 16-96h-24l-56 48-56-48h-24l16 96z" fill="#efedee"/><path d="m152.5 272v48l56 48 56-48v-48" fill="#dcb29c"/><path d="m240.5 312v-40h-88v48l39.335938 33.710938zm0 0" fill="#f3c6b0"/><path d="m88.5 120h16v64h-16c-8.839844 0-16-7.160156-16-16v-32c0-8.839844 7.160156-16 16-16zm0 0" fill="#dcb29c"/><path d="m328.5 120h-16v64h16c8.839844 0 16-7.160156 16-16v-32c0-8.839844-7.160156-16-16-16zm0 0" fill="#dcb29c"/><path d="m328.5 168v-32c0-8.839844-7.160156-16-16-16v64c8.839844 0 16-7.160156 16-16zm0 0" fill="#f3c6b0"/><path d="m208.5 288c-57.441406 0-104-46.558594-104-104v-80c0-57.441406 46.558594-104 104-104s104 46.558594 104 104v80c0 57.441406-46.558594 104-104 104zm0 0" fill="#dcb29c"/><path d="m196.5.742188c-51.777344 5.960937-92 49.882812-92 103.257812v80c0 53.375 40.222656 97.296875 92 103.257812 51.777344-5.960937 92-49.882812 92-103.257812v-80c0-53.375-40.222656-97.296875-92-103.257812zm0 0" fill="#f3c6b0"/><path d="m256.5 40c0-22.089844 17.910156-40 40-40 17.128906 0 31.632812 10.824219 37.328125 25.960938 3.351563-1.191407 6.910156-1.960938 10.671875-1.960938 17.671875 0 32 14.328125 32 32 0 12.566406-7.3125 23.335938-17.855469 28.566406 1.085938 3.648438 1.855469 7.433594 1.855469 11.433594 0 22.089844-17.910156 40-40 40s-40-17.910156-40-40c0-6.472656 1.679688-12.496094 4.414062-17.902344-16.40625-5-28.414062-20.066406-28.414062-38.097656zm0 0" fill="#575c61"/><path d="m352.5 56c0-17.671875-14.328125-32-32-32-3.761719 0-7.320312.769531-10.671875 1.960938-4.273437-11.34375-13.480469-20.257813-25.03125-24.015626-16.34375 5.03125-28.296875 20.0625-28.296875 38.054688 0 18.03125 12.007812 33.097656 28.414062 38.097656-2.734374 5.40625-4.414062 11.429688-4.414062 17.902344 0 17.878906 11.816406 32.839844 28 37.96875 16.183594-5.121094 28-20.082031 28-37.96875 0-4-.769531-7.785156-1.855469-11.433594 10.542969-5.230468 17.855469-16 17.855469-28.566406zm0 0" fill="#5b6673"/><path d="m160.5 40c0-22.089844-17.910156-40-40-40-17.128906 0-31.632812 10.824219-37.328125 25.960938-3.351563-1.191407-6.910156-1.960938-10.671875-1.960938-17.671875 0-32 14.328125-32 32 0 12.566406 7.3125 23.335938 17.855469 28.566406-1.085938 3.648438-1.855469 7.433594-1.855469 11.433594 0 22.089844 17.910156 40 40 40s40-17.910156 40-40c0-6.472656-1.679688-12.496094-4.414062-17.902344 16.40625-5 28.414062-20.066406 28.414062-38.097656zm0 0" fill="#575c61"/><path d="m64.5 56c0-17.671875 14.328125-32 32-32 3.761719 0 7.320312.769531 10.671875 1.960938 4.273437-11.34375 13.480469-20.257813 25.03125-24.015626 16.34375 5.03125 28.296875 20.0625 28.296875 38.054688 0 18.03125-12.007812 33.097656-28.414062 38.097656 2.734374 5.40625 4.414062 11.429688 4.414062 17.902344 0 17.878906-11.816406 32.839844-28 37.96875-16.183594-5.128906-28-20.089844-28-37.96875 0-4 .769531-7.785156 1.855469-11.433594-10.542969-5.230468-17.855469-16-17.855469-28.566406zm0 0" fill="#5b6673"/><path d="m288.5 240h-32c-26.511719 0-48-21.488281-48-48h32c26.511719 0 48 21.488281 48 48zm0 0" fill="#575c61"/><path d="m240.5 208h-29.207031c6.597656 18.632812 24.320312 32 45.207031 32h29.207031c-6.589843-18.632812-24.320312-32-45.207031-32zm0 0" fill="#5b6673"/><path d="m208.5 192h-32c-26.511719 0-48 21.488281-48 48h32c26.511719 0 48-21.488281 48-48zm0 0" fill="#575c61"/><path d="m131.292969 240h29.207031c20.886719 0 38.617188-13.367188 45.207031-32h-29.207031c-20.886719 0-38.617188 13.367188-45.207031 32zm0 0" fill="#5b6673"/><path d="m176.5 128h64v16h-64zm0 0" fill="#d9d7d8"/><path d="m192.5 88h32v16h-32zm0 0" fill="#dcb29c"/><path d="m176.5 56h64v16h-64zm0 0" fill="#dcb29c"/><g fill="#efedee"><path d="m280.5 136c0 13.253906-10.746094 24-24 24s-24-10.746094-24-24 10.746094-24 24-24 24 10.746094 24 24zm0 0"/><path d="m184.5 136c0 13.253906-10.746094 24-24 24s-24-10.746094-24-24 10.746094-24 24-24 24 10.746094 24 24zm0 0"/></g></svg>