<svg height="480pt" viewBox="0 0 480 480" width="480pt" xmlns="http://www.w3.org/2000/svg"><path d="m32 32h416v320h-416zm0 0" fill="#94cce7"/><path d="m128 168h136v16h-136zm0 0" fill="#575c61"/><path d="m240 480c-17.648438 0-32-14.351562-32-32h16c0 8.824219 7.175781 16 16 16s16-7.175781 16-16-7.175781-16-16-16c-4.414062 0-8-3.574219-8-8v-48h16v41.015625c13.785156 3.550781 24 16.105469 24 30.984375 0 17.648438-14.351562 32-32 32zm0 0" fill="#575c61"/><path d="m448 0h-416c-8.839844 0-16 7.160156-16 16s7.160156 16 16 16h416c8.839844 0 16-7.160156 16-16s-7.160156-16-16-16zm0 0" fill="#bc8f6f"/><path d="m0 352h368v32h-368zm0 0" fill="#bc8f6f"/><path d="m368 272h80v208h-80zm0 0" fill="#5b6673"/><path d="m368 192v88h80v24h32v-104c0-22.089844-17.910156-40-40-40h-184v32zm0 0" fill="#5789d6"/><path d="m408 160c22.089844 0 40-17.910156 40-40v-16c0-22.089844-17.910156-40-40-40s-40 17.910156-40 40v16c0 22.089844 17.910156 40 40 40zm0 0" fill="#dcb29c"/><path d="m400 64.808594c-18.257812 3.703125-32 19.839844-32 39.191406v16c0 19.351562 13.742188 35.488281 32 39.191406 18.257812-3.703125 32-19.839844 32-39.191406v-16c0-19.351562-13.742188-35.488281-32-39.191406zm0 0" fill="#f3c6b0"/><path d="m144 280c0 22.089844-17.910156 40-40 40s-40-17.910156-40-40 17.910156-40 40-40v40zm0 0" fill="#70b48f"/><path d="m400 296h16v184h-16zm0 0" fill="#575c61"/><path d="m448 192h16v112h-16zm0 0" fill="#699ce6"/><path d="m56 120h16v32h-16zm0 0" fill="#5789d6"/><path d="m56 88h16v16h-16zm0 0" fill="#5789d6"/><path d="m88 104h16v48h-16zm0 0" fill="#eebc5a"/><path d="m88 72h16v16h-16zm0 0" fill="#eebc5a"/><path d="m120 88h16v64h-16zm0 0" fill="#5da351"/><path d="m120 56h16v16h-16zm0 0" fill="#5da351"/><path d="m152 88h16v64h-16zm0 0" fill="#ca5057"/><path d="m152 56h16v16h-16zm0 0" fill="#ca5057"/><path d="m168 264h-16c0-17.648438-14.351562-32-32-32v-16c26.472656 0 48 21.527344 48 48zm0 0" fill="#70b48f"/><g fill="#d9d7d8"><path d="m184 312h112v16h-112zm0 0"/><path d="m184 280h112v16h-112zm0 0"/><path d="m184 248h112v16h-112zm0 0"/></g><path d="m368 456h80v24h-80zm0 0" fill="#bc8f6f"/><path d="m368 456h40v24h-40zm0 0" fill="#cb9e78"/></svg>